<svg version="1.1" id="Layer_1" xmlns="http://www.w3.org/2000/svg" xmlns:xlink="http://www.w3.org/1999/xlink" x="0px" y="0px"
	 width="100%" viewBox="0 0 1200 1200" enable-background="new 0 0 1200 1200" xml:space="preserve">
<path fill="#47704C" opacity="1.000000" stroke="none" 
	d="
M757.000000,1201.000000 
	C504.666656,1201.000000 252.833328,1201.000000 1.000000,1201.000000 
	C1.000000,801.000000 1.000000,401.000000 1.000000,1.000000 
	C401.000000,1.000000 801.000000,1.000000 1201.000000,1.000000 
	C1201.000000,401.000000 1201.000000,801.000000 1201.000000,1201.000000 
	C1053.166626,1201.000000 905.333313,1201.000000 757.000000,1201.000000 
M600.117065,193.055054 
	C588.020569,193.738953 575.856567,193.838776 563.841309,195.226044 
	C537.299011,198.290527 511.481049,204.682114 486.852936,215.130524 
	C441.068726,234.554352 401.800964,262.835632 369.946136,301.342438 
	C346.875946,329.230194 329.336823,360.064148 317.390167,394.188538 
	C306.183685,426.198700 300.757263,459.156128 301.087891,493.017456 
	C301.199554,504.454224 301.652771,515.969666 303.150085,527.290405 
	C305.082245,541.899353 307.278137,556.596375 311.018433,570.819580 
	C321.160583,609.386963 338.621216,644.503113 363.059204,676.125916 
	C377.984528,695.439331 394.992401,712.656616 413.978577,727.941345 
	C435.500031,745.267212 459.125183,759.082336 484.588470,769.749023 
	C521.832520,785.350769 560.446777,794.135559 601.975525,792.959534 
	C619.650330,793.712646 637.124939,791.714661 654.441101,788.549622 
	C684.955994,782.972107 713.837952,772.776489 741.387756,758.333130 
	C763.730530,746.619690 784.068848,732.195251 802.689575,715.444824 
	C819.734924,700.111572 834.953796,682.926819 847.901245,663.924683 
	C866.031616,637.316162 880.026611,608.716431 889.153870,577.730652 
	C895.505981,556.166016 899.419861,534.161560 900.672668,511.830750 
	C901.526855,496.605438 901.152466,481.181427 899.736084,465.994659 
	C898.295227,450.544891 895.814087,435.056427 892.159485,419.979797 
	C886.287598,395.756012 877.276123,372.628296 865.322510,350.589661 
	C853.555420,328.895081 839.473267,308.904816 822.931824,290.763245 
	C806.007996,272.202271 786.949463,255.917892 765.888550,242.088135 
	C740.484070,225.406174 713.260986,212.609680 684.018616,204.317795 
	C656.922119,196.634384 629.341553,192.129211 600.117065,193.055054 
M447.984772,971.836243 
	C448.612305,972.553650 449.233124,973.889709 449.868378,973.896606 
	C461.470337,974.022278 473.074005,973.988464 484.670593,973.988464 
	C484.670593,932.363098 484.670593,891.307495 484.670593,850.372559 
	C475.942230,850.372559 467.547607,850.372559 458.352570,850.372559 
	C459.139893,880.494385 459.916931,910.222229 460.693970,939.950134 
	C461.128571,939.142944 460.609192,938.321411 460.327332,937.425110 
	C451.542236,909.492981 442.724609,881.570679 434.102570,853.588196 
	C433.257233,850.844727 432.152924,849.906555 429.375671,849.949585 
	C420.545502,850.086548 411.711823,850.000061 402.879517,849.999939 
	C400.629974,849.999939 398.380402,850.000000 396.243347,850.000000 
	C396.243347,891.700012 396.243347,932.637695 396.243347,973.713440 
	C404.547028,973.713440 412.605377,973.713440 421.073792,973.713440 
	C420.357697,943.175049 422.923492,912.847961 418.646637,882.586975 
	C428.382904,912.051941 438.119141,941.516968 447.984772,971.836243 
M630.923401,868.352722 
	C630.830139,868.490784 630.696289,868.616394 630.649597,868.768677 
	C621.450745,898.773804 612.240295,928.775452 603.082825,958.793213 
	C601.590454,963.685181 600.332947,968.648743 598.909607,973.786011 
	C609.561340,973.786011 619.673523,973.786011 629.872009,973.786011 
	C632.066589,964.789368 634.216919,955.974365 636.369202,947.151062 
	C648.270874,947.151062 659.898254,947.151062 671.684875,947.151062 
	C673.850708,956.083374 675.991150,964.911072 678.146912,973.802002 
	C688.833313,973.802002 699.268616,973.802002 710.025085,973.802002 
	C704.626648,956.145081 699.279541,938.767822 694.002686,921.369324 
	C687.205872,898.959656 680.515686,876.517273 673.595581,854.145935 
	C673.095154,852.528015 671.130615,850.222900 669.790955,850.184448 
	C658.659607,849.864746 647.515076,850.003174 636.427734,850.003174 
	C634.553345,856.056946 632.776001,861.797180 630.923401,868.352722 
M560.500244,871.000000 
	C568.499817,870.999817 576.502319,871.111694 584.496155,870.896606 
	C585.936279,870.857788 588.396301,869.675720 588.587646,868.677063 
	C589.740845,862.657715 590.370300,856.538086 591.194824,850.302246 
	C563.769836,850.302246 537.038147,850.302246 510.343445,850.302246 
	C510.343445,891.662354 510.343445,932.719360 510.343445,973.614380 
	C537.413513,973.614380 564.138550,973.614380 590.747437,973.614380 
	C590.747437,966.617371 590.747437,960.008423 590.747437,952.908203 
	C573.771484,952.908203 557.041321,952.908203 540.338989,952.908203 
	C540.338989,942.345886 540.338989,932.286316 540.338989,921.999573 
	C553.325562,921.999573 565.975342,922.068359 578.622192,921.905701 
	C580.075928,921.887024 582.722595,920.644104 582.766235,919.855408 
	C583.110962,913.624817 582.957825,907.366577 582.957825,900.819580 
	C568.288391,900.819580 554.345093,900.819580 540.295044,900.819580 
	C540.295044,890.769348 540.295044,881.044128 540.295044,871.000000 
	C546.890564,871.000000 553.195557,871.000000 560.500244,871.000000 
M776.000000,895.500000 
	C776.000000,888.075073 776.000000,880.650085 776.000000,872.948975 
	C787.286011,872.948975 797.906128,872.948975 808.881592,872.948975 
	C809.904297,865.637085 810.893738,858.563232 811.903381,851.345093 
	C778.290283,851.345093 744.755554,851.345093 711.385193,851.345093 
	C711.385193,858.755432 711.385193,865.815491 711.385193,873.174927 
	C723.041443,873.174927 734.313782,873.174927 746.060547,873.174927 
	C746.060547,906.870117 746.060547,940.252197 746.060547,973.690674 
	C756.266846,973.690674 765.989014,973.690674 776.000000,973.690674 
	C776.000000,947.754944 776.000000,922.127502 776.000000,895.500000 
z"/>
<path fill="#645FCE" opacity="1.000000" stroke="none" 
	d="
M601.047302,193.124008 
	C629.341553,192.129211 656.922119,196.634384 684.018616,204.317795 
	C713.260986,212.609680 740.484070,225.406174 765.888550,242.088135 
	C786.949463,255.917892 806.007996,272.202271 822.931824,290.763245 
	C839.473267,308.904816 853.555420,328.895081 865.322510,350.589661 
	C877.276123,372.628296 886.287598,395.756012 892.159485,419.979797 
	C895.814087,435.056427 898.295227,450.544891 899.736084,465.994659 
	C901.152466,481.181427 901.526855,496.605438 900.672668,511.830750 
	C899.419861,534.161560 895.505981,556.166016 889.153870,577.730652 
	C880.026611,608.716431 866.031616,637.316162 847.901245,663.924683 
	C834.953796,682.926819 819.734924,700.111572 802.689575,715.444824 
	C784.068848,732.195251 763.730530,746.619690 741.387756,758.333130 
	C713.837952,772.776489 684.955994,782.972107 654.441101,788.549622 
	C637.124939,791.714661 619.650330,793.712646 601.497437,792.460144 
	C601.013062,746.732483 601.019165,701.504211 600.992676,656.275940 
	C600.984802,642.809570 600.885498,629.343262 601.068665,615.812134 
	C601.631897,615.625183 601.882324,615.416565 602.407959,615.161865 
	C622.949646,615.241821 641.926758,610.195923 659.499695,600.501709 
	C684.300232,586.820312 702.522461,566.909546 713.625916,540.725525 
	C722.999878,518.620117 725.846619,495.503174 721.595398,472.020264 
	C715.009216,435.639709 695.694641,407.455780 664.035706,388.037567 
	C645.044434,376.389130 624.369934,370.632202 601.899170,370.689087 
	C601.467651,370.295715 601.163757,370.170105 600.880127,369.649902 
	C600.957397,366.516602 601.001709,363.857117 601.002563,361.197601 
	C601.020447,305.173065 601.033447,249.148544 601.047302,193.124008 
z"/>
<path fill="#40346E" opacity="1.000000" stroke="none" 
	d="
M600.582153,193.089539 
	C601.033447,249.148544 601.020447,305.173065 601.002563,361.197601 
	C601.001709,363.857117 600.957397,366.516602 600.665894,369.784912 
	C582.252075,370.798035 564.742615,374.223969 548.373657,382.220947 
	C520.463379,395.856140 500.199219,416.925781 488.136017,445.634888 
	C475.678558,475.282104 475.510010,505.349915 486.267456,535.411499 
	C494.278534,557.798401 508.132111,576.164856 527.106201,590.519470 
	C540.997803,601.028931 556.216675,608.929565 573.537598,612.004456 
	C582.578613,613.609558 591.727783,614.605713 600.828064,615.876892 
	C600.885498,629.343262 600.984802,642.809570 600.992676,656.275940 
	C601.019165,701.504211 601.013062,746.732483 601.033325,792.418335 
	C560.446777,794.135559 521.832520,785.350769 484.588470,769.749023 
	C459.125183,759.082336 435.500031,745.267212 413.978577,727.941345 
	C394.992401,712.656616 377.984528,695.439331 363.059204,676.125916 
	C338.621216,644.503113 321.160583,609.386963 311.018433,570.819580 
	C307.278137,556.596375 305.082245,541.899353 303.150085,527.290405 
	C301.652771,515.969666 301.199554,504.454224 301.087891,493.017456 
	C300.757263,459.156128 306.183685,426.198700 317.390167,394.188538 
	C329.336823,360.064148 346.875946,329.230194 369.946136,301.342438 
	C401.800964,262.835632 441.068726,234.554352 486.852936,215.130524 
	C511.481049,204.682114 537.299011,198.290527 563.841309,195.226044 
	C575.856567,193.838776 588.020569,193.738953 600.582153,193.089539 
z"/>
<path fill="#FFFFFF" opacity="1.000000" stroke="none" 
	d="
M447.920105,971.409058 
	C438.119141,941.516968 428.382904,912.051941 418.646637,882.586975 
	C422.923492,912.847961 420.357697,943.175049 421.073792,973.713440 
	C412.605377,973.713440 404.547028,973.713440 396.243347,973.713440 
	C396.243347,932.637695 396.243347,891.700012 396.243347,850.000000 
	C398.380402,850.000000 400.629974,849.999939 402.879517,849.999939 
	C411.711823,850.000061 420.545502,850.086548 429.375671,849.949585 
	C432.152924,849.906555 433.257233,850.844727 434.102570,853.588196 
	C442.724609,881.570679 451.542236,909.492981 460.327332,937.425110 
	C460.609192,938.321411 461.128571,939.142944 460.693970,939.950134 
	C459.916931,910.222229 459.139893,880.494385 458.352570,850.372559 
	C467.547607,850.372559 475.942230,850.372559 484.670593,850.372559 
	C484.670593,891.307495 484.670593,932.363098 484.670593,973.988464 
	C473.074005,973.988464 461.470337,974.022278 449.868378,973.896606 
	C449.233124,973.889709 448.612305,972.553650 447.920105,971.409058 
z"/>
<path fill="#FFFFFF" opacity="1.000000" stroke="none" 
	d="
M630.961060,867.945068 
	C632.776001,861.797180 634.553345,856.056946 636.427734,850.003174 
	C647.515076,850.003174 658.659607,849.864746 669.790955,850.184448 
	C671.130615,850.222900 673.095154,852.528015 673.595581,854.145935 
	C680.515686,876.517273 687.205872,898.959656 694.002686,921.369324 
	C699.279541,938.767822 704.626648,956.145081 710.025085,973.802002 
	C699.268616,973.802002 688.833313,973.802002 678.146912,973.802002 
	C675.991150,964.911072 673.850708,956.083374 671.684875,947.151062 
	C659.898254,947.151062 648.270874,947.151062 636.369202,947.151062 
	C634.216919,955.974365 632.066589,964.789368 629.872009,973.786011 
	C619.673523,973.786011 609.561340,973.786011 598.909607,973.786011 
	C600.332947,968.648743 601.590454,963.685181 603.082825,958.793213 
	C612.240295,928.775452 621.450745,898.773804 630.649597,868.768677 
	C630.696289,868.616394 630.830139,868.490784 630.961060,867.945068 
M660.011353,898.414551 
	C658.170654,890.618958 656.329895,882.823364 654.489136,875.027832 
	C654.127930,875.068237 653.766724,875.108643 653.405518,875.149048 
	C649.312744,891.946228 645.219910,908.743408 641.066711,925.788452 
	C649.699829,925.788452 658.137939,925.788452 666.967468,925.788452 
	C664.642456,916.840698 662.358215,908.050049 660.011353,898.414551 
z"/>
<path fill="#FFFFFF" opacity="1.000000" stroke="none" 
	d="
M560.000366,871.000000 
	C553.195557,871.000000 546.890564,871.000000 540.295044,871.000000 
	C540.295044,881.044128 540.295044,890.769348 540.295044,900.819580 
	C554.345093,900.819580 568.288391,900.819580 582.957825,900.819580 
	C582.957825,907.366577 583.110962,913.624817 582.766235,919.855408 
	C582.722595,920.644104 580.075928,921.887024 578.622192,921.905701 
	C565.975342,922.068359 553.325562,921.999573 540.338989,921.999573 
	C540.338989,932.286316 540.338989,942.345886 540.338989,952.908203 
	C557.041321,952.908203 573.771484,952.908203 590.747437,952.908203 
	C590.747437,960.008423 590.747437,966.617371 590.747437,973.614380 
	C564.138550,973.614380 537.413513,973.614380 510.343445,973.614380 
	C510.343445,932.719360 510.343445,891.662354 510.343445,850.302246 
	C537.038147,850.302246 563.769836,850.302246 591.194824,850.302246 
	C590.370300,856.538086 589.740845,862.657715 588.587646,868.677063 
	C588.396301,869.675720 585.936279,870.857788 584.496155,870.896606 
	C576.502319,871.111694 568.499817,870.999817 560.000366,871.000000 
z"/>
<path fill="#FFFFFF" opacity="1.000000" stroke="none" 
	d="
M776.000000,896.000000 
	C776.000000,922.127502 776.000000,947.754944 776.000000,973.690674 
	C765.989014,973.690674 756.266846,973.690674 746.060547,973.690674 
	C746.060547,940.252197 746.060547,906.870117 746.060547,873.174927 
	C734.313782,873.174927 723.041443,873.174927 711.385193,873.174927 
	C711.385193,865.815491 711.385193,858.755432 711.385193,851.345093 
	C744.755554,851.345093 778.290283,851.345093 811.903381,851.345093 
	C810.893738,858.563232 809.904297,865.637085 808.881592,872.948975 
	C797.906128,872.948975 787.286011,872.948975 776.000000,872.948975 
	C776.000000,880.650085 776.000000,888.075073 776.000000,896.000000 
z"/>
<path fill="#A09AB7" opacity="1.000000" stroke="none" 
	d="
M601.068665,615.812134 
	C591.727783,614.605713 582.578613,613.609558 573.537598,612.004456 
	C556.216675,608.929565 540.997803,601.028931 527.106201,590.519470 
	C508.132111,576.164856 494.278534,557.798401 486.267456,535.411499 
	C475.510010,505.349915 475.678558,475.282104 488.136017,445.634888 
	C500.199219,416.925781 520.463379,395.856140 548.373657,382.220947 
	C564.742615,374.223969 582.252075,370.798035 600.612793,370.258698 
	C601.163757,370.170105 601.467651,370.295715 601.655640,371.038086 
	C601.381714,373.543365 601.031006,375.510681 601.024841,377.479065 
	C600.967163,395.929047 600.968445,414.379211 600.509277,432.878632 
	C595.484985,433.586761 590.860474,434.029266 586.330383,434.940704 
	C562.839783,439.666901 542.626404,461.073090 539.160522,484.731781 
	C535.401245,510.393494 548.866943,536.648010 571.290588,548.179260 
	C580.678528,553.006958 590.723206,554.684387 600.960327,556.463013 
	C600.981628,574.242615 600.955139,591.553589 601.046692,608.863892 
	C601.057739,610.951477 601.707153,613.035706 602.060669,615.121460 
	C601.882324,615.416565 601.631897,615.625183 601.068665,615.812134 
z"/>
<path fill="#B2AFE6" opacity="1.000000" stroke="none" 
	d="
M600.952637,432.829346 
	C600.968445,414.379211 600.967163,395.929047 601.024841,377.479065 
	C601.031006,375.510681 601.381714,373.543365 601.816040,371.226593 
	C624.369934,370.632202 645.044434,376.389130 664.035706,388.037567 
	C695.694641,407.455780 715.009216,435.639709 721.595398,472.020264 
	C725.846619,495.503174 722.999878,518.620117 713.625916,540.725525 
	C702.522461,566.909546 684.300232,586.820312 659.499695,600.501709 
	C641.926758,610.195923 622.949646,615.241821 602.407959,615.161865 
	C601.707153,613.035706 601.057739,610.951477 601.046692,608.863892 
	C600.955139,591.553589 600.981628,574.242615 601.164673,556.337036 
	C601.620422,555.556396 601.847107,555.333130 602.374939,555.138794 
	C605.527222,555.037598 608.393555,555.157349 611.147888,554.658691 
	C644.421631,548.634155 665.379700,521.590515 662.984924,487.896393 
	C660.851196,457.874908 631.141785,431.624725 601.022705,433.085083 
	C600.998596,433.000061 600.952698,432.829346 600.952637,432.829346 
z"/>
<path fill="#48704E" opacity="1.000000" stroke="none" 
	d="
M660.042664,898.836914 
	C662.358215,908.050049 664.642456,916.840698 666.967468,925.788452 
	C658.137939,925.788452 649.699829,925.788452 641.066711,925.788452 
	C645.219910,908.743408 649.312744,891.946228 653.405518,875.149048 
	C653.766724,875.108643 654.127930,875.068237 654.489136,875.027832 
	C656.329895,882.823364 658.170654,890.618958 660.042664,898.836914 
z"/>
<path fill="#CFCCDB" opacity="1.000000" stroke="none" 
	d="
M602.036987,555.072449 
	C601.847107,555.333130 601.620422,555.556396 601.152466,555.868225 
	C590.723206,554.684387 580.678528,553.006958 571.290588,548.179260 
	C548.866943,536.648010 535.401245,510.393494 539.160522,484.731781 
	C542.626404,461.073090 562.839783,439.666901 586.330383,434.940704 
	C590.860474,434.029266 595.484985,433.586761 600.509277,432.878632 
	C600.952698,432.829346 600.998596,433.000061 601.008911,433.536682 
	C601.012939,472.482330 600.991638,510.891327 601.044373,549.300232 
	C601.046997,551.224792 601.691406,553.148376 602.036987,555.072449 
z"/>
<path fill="#D8D7F2" opacity="1.000000" stroke="none" 
	d="
M602.374939,555.138794 
	C601.691406,553.148376 601.046997,551.224792 601.044373,549.300232 
	C600.991638,510.891327 601.012939,472.482330 601.033020,433.621704 
	C631.141785,431.624725 660.851196,457.874908 662.984924,487.896393 
	C665.379700,521.590515 644.421631,548.634155 611.147888,554.658691 
	C608.393555,555.157349 605.527222,555.037598 602.374939,555.138794 
z"/>
</svg>