<svg version="1.1" id="Layer_1" xmlns="http://www.w3.org/2000/svg" xmlns:xlink="http://www.w3.org/1999/xlink" x="0px" y="0px"
	 width="100%" viewBox="0 0 321 110" enable-background="new 0 0 321 110" xml:space="preserve">

<path fill="#FAFAFC" opacity="1.000000" stroke="none" 
	d="
M74.579788,69.241066 
	C74.526726,68.494698 74.522301,68.020645 74.355438,67.229980 
	C74.277145,66.732735 74.361298,66.552116 74.237434,66.156845 
	C73.448494,50.557079 73.220215,35.170380 73.308067,19.771341 
	C73.326767,16.493181 74.134094,15.694693 77.113556,15.962412 
	C81.223518,16.331713 86.590775,14.253756 89.147690,16.730577 
	C91.723907,19.226097 89.884911,24.612476 89.900620,28.721949 
	C89.983360,50.385040 89.853065,72.049309 90.026772,93.711319 
	C90.054794,97.206261 89.219315,98.348625 85.668678,98.073189 
	C79.228241,97.573578 71.172325,100.515205 66.742828,97.008751 
	C62.594170,93.724640 62.175934,85.676178 60.214195,79.692200 
	C56.132999,67.243187 52.123878,54.770554 48.064308,42.314415 
	C47.582573,40.836296 46.970898,39.400532 45.913685,38.057018 
	C46.050831,43.861805 46.826927,49.545479 47.173920,55.259010 
	C47.972076,68.401451 47.542965,81.546722 47.787842,94.687622 
	C47.836948,97.322861 47.025742,97.991951 44.426296,98.075005 
	C31.099039,98.500870 31.101629,98.582085 31.101631,85.250351 
	C31.101631,63.586945 31.190405,41.922810 31.012983,20.260859 
	C30.983915,16.711784 31.939423,15.716078 35.421062,15.915079 
	C40.736229,16.218882 46.103539,16.287590 51.406246,15.889920 
	C54.839325,15.632461 55.853817,17.113323 56.744743,19.983950 
	C62.052803,37.086857 67.528419,54.137764 73.069031,71.570724 
	C73.564880,72.482552 73.944633,73.027039 74.119400,73.680641 
	C74.520180,73.358765 74.254883,72.819176 74.680939,72.205231 
	C74.858253,71.530846 74.875237,71.104370 74.814461,70.366928 
	C74.700607,69.875107 74.664520,69.694244 74.579788,69.241066 
z"/>
<path fill="#FCFCFD" opacity="1.000000" stroke="none" 
	d="
M231.907852,73.130890 
	C234.407104,81.431084 236.811264,89.339668 239.441956,97.993416 
	C232.741821,97.993416 226.531723,97.976837 220.321823,98.003548 
	C218.464523,98.011536 218.301193,96.661484 217.990265,95.354919 
	C217.029526,91.317940 215.830673,87.321411 215.160416,83.237587 
	C214.754990,80.767342 213.913651,79.875488 211.363373,79.946556 
	C205.206650,80.118126 199.039719,80.095200 192.881592,79.950851 
	C190.784988,79.901703 190.040955,80.644646 189.658859,82.615829 
	C188.837967,86.850746 187.732941,91.029861 186.797699,95.243675 
	C186.399887,97.035988 185.763779,98.122101 183.541077,98.057709 
	C177.765396,97.890373 171.981628,98.001480 165.733063,98.001480 
	C171.691193,78.337822 177.499756,59.155869 183.316742,39.976479 
	C185.337128,33.314949 187.632980,26.722996 189.309021,19.976536 
	C190.228241,16.276409 192.020615,15.285655 195.575455,15.499543 
	C200.387329,15.789063 205.253769,15.866665 210.051163,15.475420 
	C213.695801,15.178185 214.909576,16.787827 215.835434,19.907526 
	C221.069901,37.545212 226.469452,55.133907 231.907852,73.130890 
z"/>
<path fill="#FCFCFD" opacity="1.000000" stroke="none" 
	d="
M151.833908,29.821095 
	C144.231445,29.851561 137.103821,29.984249 129.986908,29.766613 
	C127.049744,29.676792 126.240082,30.679998 126.379272,33.459358 
	C126.578918,37.445957 126.658867,41.467262 126.359184,45.441265 
	C126.110565,48.738060 127.495453,49.318039 130.388275,49.247608 
	C137.510498,49.074196 144.641129,49.265076 151.765060,49.131889 
	C154.081757,49.088577 154.846146,49.700500 154.966141,52.150696 
	C155.497742,63.007393 155.591431,63.002789 144.681793,63.002800 
	C139.686035,63.002804 134.684402,63.147785 129.696899,62.944927 
	C126.999741,62.835224 126.283737,63.794868 126.378769,66.358208 
	C126.557549,71.180817 126.552689,76.019096 126.381584,80.842255 
	C126.288643,83.461876 127.139397,84.258362 129.787567,84.213120 
	C138.899017,84.057465 148.016342,84.252319 157.128052,84.104691 
	C159.944702,84.059052 160.747192,84.952110 160.802505,87.764420 
	C161.003952,98.004959 161.114990,98.002777 150.858856,98.002777 
	C137.703369,98.002777 124.546326,97.893181 111.393494,98.079964 
	C108.111702,98.126564 106.871628,97.608040 106.899986,93.889664 
	C107.087898,69.245377 106.984062,44.598938 107.025497,19.953285 
	C107.028397,18.226519 106.001976,15.913911 109.550888,15.940654 
	C126.516838,16.068495 143.484299,15.997976 160.609039,15.997976 
	C160.191086,18.826109 159.467712,21.291752 159.539490,23.734024 
	C159.695587,29.045221 157.235962,30.770210 151.833908,29.821095 
z"/>
<path fill="#FFFFFF" opacity="1.000000" stroke="none" 
	d="
M240.580811,27.969875 
	C240.643539,23.819490 239.294144,18.909620 241.136108,16.839787 
	C243.332138,14.372122 248.349777,16.056978 252.134674,16.038519 
	C269.122650,15.955665 286.112366,16.104313 303.098663,15.917607 
	C306.550720,15.879664 307.175964,16.832649 306.623657,20.044872 
	C304.743317,30.980927 304.840118,30.997572 293.748230,30.997574 
	C283.083740,30.997576 283.083740,30.997576 283.083740,41.887920 
	C283.083740,59.042847 282.986664,76.198776 283.163849,93.351868 
	C283.200226,96.871384 282.660431,98.490807 278.651672,98.083481 
	C273.893982,97.600067 267.543427,99.561333 264.697388,97.146461 
	C261.738037,94.635452 263.878387,88.102806 263.847748,83.336815 
	C263.743835,67.181870 263.730011,51.025127 263.878174,34.870876 
	C263.905609,31.875566 263.271240,30.762083 260.070435,30.921967 
	C254.587875,31.195827 249.081238,30.955233 243.585770,31.020836 
	C241.729065,31.043001 240.177002,30.980591 240.580811,27.969875 
z"/>
<path fill="#2C283F" opacity="1.000000" stroke="none" 
	d="
M74.566116,71.967087 
	C75.169128,73.358017 75.539764,74.757454 74.998886,76.319229 
	C73.287842,75.534584 74.078354,73.633217 73.170845,72.268661 
	C73.557190,71.949165 73.924088,71.963013 74.566116,71.967087 
z"/>
<path fill="#2C283F" opacity="1.000000" stroke="none" 
	d="
M73.939056,66.110825 
	C74.282181,66.081528 74.403297,66.295395 74.292892,66.748566 
	C73.927010,66.784210 73.812233,66.572906 73.939056,66.110825 
z"/>
<path fill="#2C283F" opacity="1.000000" stroke="none" 
	d="
M74.365173,69.079544 
	C74.640503,69.135605 74.749847,69.302460 74.797943,69.762634 
	C74.557526,69.767418 74.378365,69.478882 74.365173,69.079544 
z"/>
<path fill="#08070A" opacity="1.000000" stroke="none" 
	d="
M202.991241,32.494087 
	C205.447830,42.831825 207.655014,52.845768 210.359207,62.723656 
	C211.266449,66.037628 210.226852,66.476791 207.524521,66.212288 
	C203.011261,65.770538 196.803116,68.289467 194.438843,65.126282 
	C192.397217,62.394745 195.756973,56.795170 196.833313,52.487350 
	C198.553986,45.600788 200.295471,38.719418 202.044083,31.839903 
	C202.074646,31.719658 202.383606,31.542742 202.428543,31.575615 
	C202.624756,31.719116 202.771378,31.930431 202.991241,32.494087 
z"/>
</svg>