<svg version="1.1" id="Layer_1" xmlns="http://www.w3.org/2000/svg" xmlns:xlink="http://www.w3.org/1999/xlink" x="0px" y="0px"
	 width="100%" viewBox="0 0 104 110" enable-background="new 0 0 104 110" xml:space="preserve">
    <path fill="#FAFAFC" opacity="1.000000" stroke="none"
		  d="M45.948669,15.993789
            C49.414757,15.993789 52.391964,15.993789 55.423683,15.993789
            C61.443256,35.028732 67.365562,53.756096 73.287872,72.483459
            C73.443665,72.473824 73.599457,72.464188 73.755249,72.454544
            C73.755249,53.834660 73.755249,35.214775 73.755249,16.294561
            C78.828941,16.294561 84.072395,16.294561 89.631042,16.294561
            C89.631042,43.258450 89.631042,70.310684 89.631042,97.685089
            C82.001801,97.685089 74.261353,97.685089 66.225594,97.685089
            C59.722763,77.845993 53.172688,57.862751 46.305672,36.912575
            C46.972431,57.829659 47.600491,77.532745 48.241173,97.631851
            C42.303181,97.631851 37.068836,97.631851 31.463366,97.631851
            C31.463366,70.831306 31.463366,43.783707 31.463366,15.993789
            C35.964790,15.993789 40.712288,15.993789 45.948669,15.993789
            z"/>
</svg>