<svg version="1.1" id="Layer_1" xmlns="http://www.w3.org/2000/svg" xmlns:xlink="http://www.w3.org/1999/xlink" x="0px" y="0px"
	 width="100%" viewBox="0 0 104 110" enable-background="new 0 0 104 110" xml:space="preserve">
<path fill="#010101" opacity="1.000000" stroke="none" 
	d="
M70.000000,111.000000 
	C46.666668,111.000000 23.833334,111.000000 1.000000,111.000000 
	C1.000000,74.333336 1.000000,37.666668 1.000000,1.000000 
	C35.666668,1.000000 70.333336,1.000000 105.000000,1.000000 
	C105.000000,37.666668 105.000000,74.333336 105.000000,111.000000 
	C93.500000,111.000000 82.000000,111.000000 70.000000,111.000000 
M45.459785,15.993789 
	C40.712288,15.993789 35.964790,15.993789 31.463366,15.993789 
	C31.463366,43.783707 31.463366,70.831306 31.463366,97.631851 
	C37.068836,97.631851 42.303181,97.631851 48.241173,97.631851 
	C47.600491,77.532745 46.972431,57.829659 46.305672,36.912575 
	C53.172688,57.862751 59.722763,77.845993 66.225594,97.685089 
	C74.261353,97.685089 82.001801,97.685089 89.631042,97.685089 
	C89.631042,70.310684 89.631042,43.258450 89.631042,16.294561 
	C84.072395,16.294561 78.828941,16.294561 73.755249,16.294561 
	C73.755249,35.214775 73.755249,53.834660 73.755249,72.454544 
	C73.599457,72.464188 73.443665,72.473824 73.287872,72.483459 
	C67.365562,53.756096 61.443256,35.028732 55.423683,15.993789 
	C52.391964,15.993789 49.414757,15.993789 45.459785,15.993789 
z"/>
<path fill="#FAFAFC" opacity="1.000000" stroke="none" 
	d="
M45.948669,15.993789 
	C49.414757,15.993789 52.391964,15.993789 55.423683,15.993789 
	C61.443256,35.028732 67.365562,53.756096 73.287872,72.483459 
	C73.443665,72.473824 73.599457,72.464188 73.755249,72.454544 
	C73.755249,53.834660 73.755249,35.214775 73.755249,16.294561 
	C78.828941,16.294561 84.072395,16.294561 89.631042,16.294561 
	C89.631042,43.258450 89.631042,70.310684 89.631042,97.685089 
	C82.001801,97.685089 74.261353,97.685089 66.225594,97.685089 
	C59.722763,77.845993 53.172688,57.862751 46.305672,36.912575 
	C46.972431,57.829659 47.600491,77.532745 48.241173,97.631851 
	C42.303181,97.631851 37.068836,97.631851 31.463366,97.631851 
	C31.463366,70.831306 31.463366,43.783707 31.463366,15.993789 
	C35.964790,15.993789 40.712288,15.993789 45.948669,15.993789 
z"/>
</svg>